/* XPM */
const static char *soundpanel_xpm[]={
"48 48 47 1",
". c None",
"# c None",
"c c #595959",
"b c #585858",
"a c #595959",
"I c #001c1c",
"J c #003939",
"K c #005555",
"E c #007171",
"G c #008d8d",
"F c #00a9a9",
"D c #00aaaa",
"H c #00c5c5",
"A c #00c6c6",
"B c #00e2e2",
"C c #00ffff",
"q c #1c0000",
"S c #1d7272",
"Q c #1d8e8e",
"R c #1daaaa",
"z c #1dc7c7",
"M c #31a1a1",
"o c #390000",
"y c #3a8f8f",
"P c #3b8f8f",
"L c #447c7c",
"O c #457c7c",
"N c #4e6a6a",
"r c #540000",
"p c #550000",
"e c #585858",
"d c #595959",
"v c #6a4e4e",
"n c #710000",
"t c #7c4444",
"w c #7c4545",
"l c #8d0000",
"g c #8f3a3a",
"x c #8f3b3b",
"u c #a13131",
"m c #a90000",
"i c #aa0000",
"j c #c60000",
"h c #c71d1d",
"k c #e20000",
"f c #ff0000",
"s c #ffffff",
"..................##############################",
"..................######aabbbbbbbbbbbbbbbbbbbbc#",
"..................######deeeeeeeeeeeeeeeeeeeeeb#",
"........f.........######eghijkijkjjjkkkjjjjkfeb#",
"........f.........######eghlmjnmkmmmjjjlmjljfeb#",
"........f.........######eghnliolkllliiipljpifeb#",
"........f.........######eghjjjpljjjjjjjpljljfeb#",
"........f.........######eghkkkijkkkkkkkijkjkfeb#",
"........f.........######eghffffffffffffffffffeb#",
".......fff........######eghinojnqinojnqjnqfffeb#",
".......f.f........######eghilnjlrilnjnqjlrfffeb#",
".......f.f........######eghiiijmliiijnqjmlfffeb#",
".......s.s........######eghffffffffffffffffffeb#",
".......s.s........######etuhhhhhhhhhhhhhhhhhheb#",
".......s.s........######evwxxxxxxxxxxxxxxxxxxeb#",
"......ss.ss.......##############################",
"......ss.ss.......######aabbbbbbbbbbbbbbbbbbbbc#",
"......ss.ss.......######deeeeeeeeeeeeeeeeeeeeeb#",
"......s.s.s.......######eyzABCDABDABBBBDABABCeb#",
"......ss.ss.......######eyzEFBEFBGFAFHBEFBGACeb#",
"......ss.ss.......######eyzIEAJGBEGDEFBJGBKDCeb#",
"......f...f.......######eyzGACKGAAAAAAAGACGACeb#",
"......f...f.......######eyzABCDABBBBBBBABCABCeb#",
"......ff.ff.......######eyzCCCCCCCCCCCCCCCCCCeb#",
"......ff.ff.......######eyzJGBJEDJEDEEEDDDCCCeb#",
"......f.f.f.......######eyzJGBJEDEGDGGGDGECCCeb#",
".....fff.fff......######eyzJGBJEDDDDDDDDEJCCCeb#",
".....f.f.f.f......######eyzCCCCCCCCCCCCCCCCCCeb#",
".....ff...ff......######eLMzzzzzzzzzzzzzzzzzzeb#",
".....f.....f......######eNOPPPPPPPPPPPPPPPPPPeb#",
"....ss.....ss.....##############################",
"....ss.....ss.....######aabbbbbbbbbbbbbbbbbbbbc#",
"....s.s...s.s.....######deeeeeeeeeeeeeeeeeeeeeb#",
"....s..s.s..s.....######eyzBBBDABABCAAABADCCCeb#",
"....s...s...s.....######eyzGFAEFBEFBGGGAFGABCeb#",
"...ss..s.s..ss....######eyzJEDJGBIEAKKKDGEGACeb#",
"...ss.s...s.ss....######eyzAAAGACGACAAAAAAGACeb#",
"...sss.....sss....######eyzBBBABCABCBBBBBBABCeb#",
"...ss.......ss....######eyzCCCCCCCCCCCCCCCCCCeb#",
"..fff.......fff...######eyzABCDABBBBDABAAAABCeb#",
"..ff.ff...ff.ff...######eyzEFBEFBFHBEFBGFAGACeb#",
".ff....fff....ff..######eyzIEAJGBEFBJGBKGAKDCeb#",
".ff....fff....ff..######eyzGACKGAAAAGACGACGACeb#",
"ff.....f.f.....ff.######eLMQRzSQRRRRQRzQRzQRzeb#",
"ff...ff...ff...ff.######eNOPPPPPPPPPPPPPPPPPPeb#",
"ff..f.......f..ff.##############################",
"ff.f.........f.ff.##############################",
"fff...........fff.##############################"};
