/* XPM */
const static char *soundpanel_xpm[]={
"32 32 36 1",
"n c None",
". c None",
"E c #ff0505",
"# c #595959",
"C c #ff0202",
"D c #ff0303",
"H c #ffffff",
"d c #585858",
"b c #585858",
"a c #585858",
"B c #ff0000",
"w c #001c1c",
"x c #003939",
"z c #005555",
"y c #007171",
"A c #008d8d",
"u c #00aaaa",
"s c #00c6c6",
"v c #00e2e2",
"t c #00ffff",
"m c #1c0000",
"r c #1dc7c7",
"j c #390000",
"G c #3b8f8f",
"F c #457c7c",
"l c #550000",
"i c #710000",
"p c #7c4545",
"k c #8d0000",
"q c #8f3b3b",
"f c #aa0000",
"h c #c60000",
"e c #c71d1d",
"g c #e20000",
"c c #ff0000",
"o c #ffffff",
"................................",
"................#aaaaaaaaaaaaab.",
".....c..........defgfghhgghhhca.",
".....c..........deifjgkkfflhlca.",
".....c..........dehhlhhhhhlhkca.",
".....c..........decccccccccccca.",
"....ccc.........defjhmfjhmhmcca.",
"....cnc.........deffhkffhmhkcca.",
"....ono.........decccccccccccca.",
"....ono.........dpqqqqqqqqqqqqa.",
"....ooon........................",
"....ooon........#aaaaaaaaaaaaab.",
"....onon........drstuvuvvvuvsta.",
"....onon........drwsxvyuyvxvzta.",
"....c.cn........drAtzsssssAtAta.",
"....cncn........drtttttttttttta.",
"....cccn........drxvxuxuyyuutta.",
"...ccccB........drxvxuuuuuuxtta.",
"...ccCcc........drtttttttttttta.",
"...cD.Ec........dFGGGGGGGGGGGGa.",
"..oo...oo.......................",
"..oon.Hoo.......#aaaaaaaaaaaaab.",
"..ononono.......drvvuvstssvutta.",
"..onnonnon......drxuxvwszzuyAta.",
"..onononon......drssAtAtssssAta.",
"..oonnnoon......drtttttttttttta.",
".ccnnnnncc......drstuvvvuvsssta.",
"ncncnnncEcn.....drwsxvyvxvzszta.",
"cc.ncncn.ccE....drAtzsssAtAtAta.",
"cnnnncnnn.cn....dFGGGGGGGGGGGGa.",
"cnncc.ccnncn....................",
"cccn....cccn...................."};
