/* XPM */
const static char *soundpanel_xpm[]={
"22 22 214 2",
"Qt c None",
"a8 c #ff2222",
"aF c #ff0e0e",
".c c #616161",
"#6 c #ffffff",
"#. c #5e5e5e",
"ah c #5d5d5d",
".e c #ff0606",
"aS c #ff0606",
"aI c #ffffff",
"#3 c #ff0b0b",
".# c #5d5d5d",
"#L c #ff0606",
".p c #ff0303",
"bp c #5a5a5a",
"br c #ff0404",
"a5 c #ff0606",
"a# c #5a5a5a",
".7 c #5c5c5c",
"#1 c #ffffff",
".b c #5b5b5b",
".n c #595959",
"bk c #ff0303",
"ad c #ffffff",
"#l c #595959",
"aw c #595959",
"ae c #5a5a5a",
".y c #595959",
".a c #5a5a5a",
".G c #ff0202",
"#z c #ff0101",
".P c #ff7f7f",
"#m c #ff9f9f",
".Y c #ffffff",
".9 c #5a5a5a",
"aJ c #ffffff",
"bs c #ff0202",
"aL c #ff9a9a",
"ac c #ffffff",
"#4 c #ff2d2d",
".8 c #5a5a5a",
"aP c #ff0101",
"ai c #ffffff",
"ag c #595959",
"bl c #4e6e6e",
"aR c #ff0202",
"a4 c #ff0101",
".d c #ff0101",
"a3 c #ff0101",
"bh c #ff0202",
"af c #585858",
"#7 c #4c7171",
"bj c #ff0202",
"aj c #ffffff",
"#A c #ff0101",
".Q c #ff7f7f",
"#n c #ff9f9f",
"a7 c #ff0101",
"#W c #ff0101",
"#I c #ff0101",
".1 c #774848",
".f c #864141",
"#b c #3d8c8c",
"bt c #ff0101",
"ax c #ffffff",
".Z c #ffffff",
"bi c #ff0101",
"am c #3a9292",
"aT c #ff0101",
"ak c #ffffff",
"#p c #369898",
"a9 c #379595",
".q c #983636",
"bo c #437f7f",
".o c #ff0000",
"al c #ffffff",
"aH c #fffbfb",
"## c #ffffff",
"bn c #3b8f8f",
"bm c #3f8888",
"aa c #ffffff",
"#5 c #ff6666",
"a. c #408686",
"aG c #ffcfcf",
"#B c #ff0000",
".R c #ff7f7f",
"#o c #ff9f9f",
".I c #ff0000",
".0 c #ffffff",
"#a c #ffffff",
"aQ c #ff0000",
"#U c #ff0101",
"a6 c #ff0000",
"#9 c #369898",
"#8 c #3b9090",
"ab c #ffffff",
"#2 c #ff4040",
".4 c #903a3a",
".m c #ad2b2b",
"#k c #25b9b9",
"aU c #ff0000",
"a2 c #ff0000",
".6 c #ffffff",
"av c #1fc4c4",
".H c #ff0000",
"aK c #ffecec",
"#K c #ff0000",
"#y c #19cfcf",
"bg c #1ccaca",
".g c #9a2121",
".2 c #9d3333",
".l c #a61919",
".3 c #a72e2e",
".i c #a81919",
".h c #ad1919",
".j c #b01919",
".k c #b71919",
".x c #cf1919",
"bq c #ff0000",
"#f c #10a6a6",
"#i c #10aaaa",
"#e c #10b1b1",
"#j c #10b5b5",
"#h c #10c0c0",
"#g c #10c3c3",
"#d c #10c6c6",
"#c c #19aaaa",
"#V c #ff0000",
"#T c #ff0000",
"as c #08aaaa",
"aq c #08b0b0",
"at c #08b4b4",
"ap c #08b5b5",
"ao c #08baba",
"ar c #08c5c5",
"au c #08caca",
"an c #12b8b8",
"#P c #007474",
"#O c #007878",
"aB c #008282",
"#Q c #008888",
"aD c #009292",
"#x c #009494",
"#s c #009696",
"aE c #009797",
"#w c #009898",
"#R c #009a9a",
"az c #009f9f",
"#t c #00a0a0",
"#u c #00a2a2",
"a1 c #00a7a7",
"a0 c #00aaaa",
"#r c #00abab",
"#N c #00adad",
"aA c #00b2b2",
"aX c #00b3b3",
"aC c #00b7b7",
"#v c #00baba",
"aY c #00bfbf",
"aW c #00c3c3",
"aZ c #00c4c4",
"#Y c #00cccc",
"#E c #00dddd",
"#Z c #00dfdf",
"#S c #00e0e0",
"#H c #00e6e6",
"#G c #00eaea",
"#0 c #00ecec",
"#F c #00eded",
"aN c #00eeee",
"#D c #00efef",
"aO c #00f2f2",
"ba c #049494",
"bc c #04a0a0",
"bf c #04a1a1",
"be c #04adad",
"bb c #04b5b5",
"b# c #04bbbb",
"bd c #04cbcb",
"#M c #0b6e6e",
"#q c #0b7676",
"aV c #0b9797",
"ay c #0b9a9a",
"#X c #0bbbbb",
"#C c #0bd3d3",
"aM c #0bdede",
"b. c #0e8f8f",
".M c #660000",
".K c #850000",
".w c #8a0000",
".N c #950000",
".s c #960000",
".L c #980000",
".t c #9a0000",
".r c #a10b0b",
".u c #a60000",
".V c #a70000",
".v c #a90000",
".J c #bb0b0b",
".E c #c90000",
".S c #cf0b0b",
".B c #d00000",
".O c #d20000",
".W c #d50000",
".F c #d60000",
".T c #d70000",
".A c #d90000",
".z c #da0b0b",
".U c #db0000",
".D c #df0000",
".C c #e60000",
".X c #f00000",
"#J c #ff0000",
".5 c #ffffff",
"QtQtQtQtQtQtQtQtQtQtQt.#.a.a.a.a.a.a.a.a.b.c",
"QtQtQt.d.eQtQtQtQtQtQt.f.g.h.i.i.j.k.l.i.m.n",
"QtQtQt.o.pQtQtQtQtQtQt.q.r.s.t.u.v.v.w.w.x.y",
"QtQtQt.o.pQtQtQtQtQtQt.q.z.A.B.C.C.D.E.F.x.y",
"QtQt.G.H.IQtQtQtQtQtQt.q.J.K.K.L.t.M.N.O.x.y",
"QtQt.P.Q.RQtQtQtQtQtQt.q.S.T.O.O.U.V.W.X.x.y",
"QtQt.Y.Z.0QtQtQtQtQtQt.1.2.3.3.3.3.3.3.3.4.n",
"QtQt.Y.5.6QtQtQtQtQtQt.7.8.8.8.8.8.8.8.8.9#.",
"QtQt.Y###aQtQtQtQtQtQt#b#c#d#e#f#g#h#i#j#k#l",
"QtQt#m#n#oQtQtQtQtQtQt#p#q#r#s#t#u#v#w#x#y.y",
"QtQt#z#A#BQtQtQtQtQtQt#p#C#D#E#F#F#G#G#H#y.y",
"QtQt#I#J#K#LQtQtQtQtQt#p#M#N#O#P#s#Q#R#S#y.y",
"QtQt#T#U#V#WQtQtQtQtQt#p#X#S#Y#Z#Z#Z#Y#0#y.y",
"Qt#1#2#3#4#5#6QtQtQtQt#7#8#9#9#9#9#9#9#9a.a#",
"QtaaabQtac.5adQtQtQtQtaeafafafafafafafafagah",
"QtaaaiajakaladQtQtQtQtamanaoapaqarasatauavaw",
"QtaaadaxajaxadQtQtQtQt#payazaAaBaCaD#raE#y.y",
"aFaGaHaIaJaKaLQtQtQtQt#paMaNaN#0aOaN#F#H#y.y",
"aPaQaRQtaSaTaUQtQtQtQt#paVaWaXaY#NaZa0a1#y.y",
"a2a3a4aRaTa5a6a7a8QtQta9b.b#babbbcbdbebfbg.y",
"#BQtbhbibjbk.p.oQtQtQtblbmbnbnbnbnbnbnbnbobp",
"bq#BaRbrbsbtaQ.oQtQtQtQtQtQtQtQtQtQtQtQtQtQt"};
