/* XPM */
const static char *soundpanel_xpm[]={
"16 16 160 2",
"Qt c None",
"#t c #009797",
"#u c #009a9a",
"#v c #00a3a3",
"#w c #00b1b1",
"#j c #00cdcd",
"#9 c #00d1d1",
"a. c #00d2d2",
"#m c #00d3d3",
"#8 c #00d5d5",
"#k c #00d8d8",
"#l c #00dada",
"ak c #01b1b1",
"ah c #01b6b6",
"ai c #01bbbb",
"aj c #01c0c0",
"#s c #05a1a1",
"#V c #05aaaa",
"#W c #05acac",
"#X c #05b0b0",
"#U c #05b1b1",
"#7 c #05cbcb",
"#i c #05cccc",
"ag c #06b2b2",
"#b c #08a4a4",
"#. c #08a7a7",
"## c #08a8a8",
"#a c #08b9b9",
"#T c #0aaeae",
"a# c #0bcbcb",
"#n c #0bcfcf",
"#x c #0bdada",
"al c #0cb9b9",
".9 c #0da6a6",
"#Y c #0fbebe",
"#c c #12b1b1",
"as c #179898",
"av c #17a2a2",
"at c #17a3a3",
"au c #17acac",
"#D c #1ab6b6",
"#F c #1ab7b7",
"#E c #1abdbd",
"ar c #1b9d9d",
"#C c #1eb3b3",
"aw c #1fa4a4",
"#G c #22baba",
"#r c #258f8f",
"af c #259999",
"#h c #25a5a5",
"#6 c #25aaaa",
"#S c #289e9e",
".8 c #2a9191",
"aq c #328a8a",
"am c #33a1a1",
"#o c #33a2a2",
"#B c #349292",
"#Z c #359d9d",
"#d c #379a9a",
"ax c #3d8f8f",
"#H c #3f8d8d",
"aB c #3f9191",
"#O c #417a7a",
"#P c #417b7b",
"aA c #418e8e",
"aC c #428a8a",
"#N c #437a7a",
"#Q c #447c7c",
"#M c #4c7171",
".2 c #4d7272",
".1 c #4d7373",
".3 c #4d7878",
"az c #4d7d7d",
".0 c #4e7676",
".4 c #4f7575",
"#R c #526f6f",
".Z c #536e6e",
"aD c #557878",
".5 c #576e6e",
".b c #7c4545",
".i c #7c4d4d",
".c c #883636",
".g c #8a3434",
".X c #8a3f3f",
".d c #8b3434",
".h c #8b3838",
".e c #8c3434",
".L c #900000",
".f c #923434",
".l c #962b2b",
".R c #963535",
".q c #980b0b",
".s c #983838",
".m c #9e0f0f",
".n c #a00b0b",
".J c #a20000",
".D c #a23333",
".r c #a71414",
".o c #a80b0b",
".H c #a92525",
".w c #ad2525",
".K c #ae0000",
".p c #ae0b0b",
".V c #ae1c1c",
".M c #b00000",
".I c #b00505",
".S c #b51f1f",
".T c #b81c1c",
".W c #b82323",
".U c #b91c1c",
".B c #bc0000",
".y c #c20000",
".x c #c80505",
".C c #ca0b0b",
".A c #cd0000",
".z c #d30000",
".N c #d60b0b",
"#p c #ff0000",
".u c #ff0101",
".j c #ff0202",
"ao c #ff0303",
"an c #ff0404",
"ay c #ff0505",
".v c #ff0808",
"ad c #ff0909",
"aa c #ff0a0a",
"#q c #ff0b0b",
".# c #ff0d0d",
".k c #ff0e0e",
"ab c #ff1c1c",
"#z c #ff1f1f",
".F c #ff2121",
"ac c #ff2828",
"#g c #ff2b2b",
"#f c #ff2d2d",
".G c #ff2e2e",
"#e c #ff2f2f",
"#y c #ff3232",
".E c #ff3838",
".a c #ff3939",
".t c #ff3b3b",
"#A c #ff5050",
"ap c #ff6f6f",
"ae c #ffb4b4",
"#5 c #ffbcbc",
"#0 c #ffcece",
".O c #ffd0d0",
".Q c #ffd1d1",
"#J c #ffd2d2",
".P c #ffd3d3",
".7 c #ffd4d4",
".6 c #ffd8d8",
"#4 c #ffdada",
"#K c #ffe5e5",
"#I c #ffe8e8",
"#1 c #ffebeb",
"#L c #ffefef",
"#3 c #fff6f6",
"#2 c #fffdfd",
".Y c #ffffff",
"QtQt.#.aQtQtQtQt.b.c.d.e.f.g.h.i",
"QtQt.j.kQtQtQtQt.l.m.n.o.p.q.r.s",
"Qt.t.u.vQtQtQtQt.w.x.y.z.A.B.C.D",
"Qt.E.F.GQtQtQtQt.H.I.J.K.L.M.N.D",
"Qt.O.P.QQtQtQtQt.R.S.T.U.V.U.W.X",
"Qt.Y.Y.YQtQtQtQt.Z.0.1.2.3.2.4.5",
"Qt.P.6.7QtQtQtQt.8.9#.###a#b#c#d",
"Qt#e#f#gQtQtQtQt#h#i#j#k#l#m#n#o",
"Qt.j#p.u#qQtQtQt#r#s#t#u#v#w#x#o",
".Y#y.k#z#A.YQtQt#B#C#D#E#E#F#G#H",
".Y#I#J#K#L.YQtQt#M#N#O#O#O#P#Q#R",
".Y.Y.Y.Y.Y.YQtQt#S#T#U#V#W#X#Y#Z",
"#0#1#2#3#4#5QtQt#6#7#8#j#9a.a##o",
"aaabacac.kadaeQtafagahaiajakalam",
".uanaoanao.japQtaqarasatauavawax",
"#p.jayao.j.uQtQtazaAaBaBaBaBaCaD"};
